<?xml version="1.0" encoding="utf-8"?>
<!-- Generator: Adobe Illustrator 25.2.1, SVG Export Plug-In . SVG Version: 6.00 Build 0)  -->
<svg version="1.1" id="Layer_1" xmlns="http://www.w3.org/2000/svg" xmlns:xlink="http://www.w3.org/1999/xlink" x="0px" y="0px"
	 viewBox="0 0 560 420" style="enable-background:new 0 0 560 420;" xml:space="preserve">
<style type="text/css">
	.st0{fill:none;stroke:#666666;stroke-width:15;stroke-linejoin:round;stroke-miterlimit:10;}
	.st1{fill:none;stroke:#00FF00;stroke-width:15;stroke-linejoin:round;stroke-miterlimit:10;}
</style>
<g>
	<g>
		<path class="st0" d="M432.7,202.8l-0.1-4.5l-0.2-4.5l-0.4-4.5l-0.5-4.5l-0.6-4.5l-0.8-4.4l-0.9-4.4l-1.1-4.4l-1.2-4.3l-1.3-4.3
			l-1.5-4.3l-1.6-4.2l-1.7-4.2l-1.9-4.1l-2-4l-2.1-4l-2.2-3.9l-2.4-3.8l-2.5-3.8l-2.6-3.7l-2.7-3.6l-2.8-3.5l-2.9-3.4l-3-3.3
			l-3.1-3.2l-3.2-3.1l-3.3-3l-3.4-2.9l-3.5-2.8l-3.6-2.7l-3.7-2.6l-3.8-2.5l-3.9-2.3l-3.9-2.2l-4-2.1l-4.1-2l-4.1-1.8l-4.2-1.7
			l-4.2-1.6l-4.3-1.4l-4.3-1.3l-4.4-1.2l-4.4-1l-4.4-0.9l-4.4-0.7l-4.5-0.6l-4.5-0.5l-4.5-0.3l-4.5-0.2l-4.5,0l-4.5,0.1l-4.5,0.2
			l-4.5,0.4l-4.5,0.5l-4.5,0.7l-4.4,0.8l-4.4,1l-4.4,1.1l-4.3,1.2l-4.3,1.4l-4.2,1.5l-4.2,1.6l-4.1,1.8l-4.1,1.9l-4,2l-4,2.1
			l-3.9,2.3l-3.8,2.4l-3.7,2.5l-3.7,2.6l-3.6,2.7l-3.5,2.9l-3.4,3l-3.3,3.1l-3.2,3.2l-3.1,3.3l-3,3.4l-2.9,3.5l-2.8,3.6l-2.7,3.6
			l-2.5,3.7l-2.4,3.8l-2.3,3.9l-2.2,3.9l-2.1,4l-1.9,4.1l-1.8,4.1l-1.7,4.2l-1.5,4.2l-1.4,4.3l-1.3,4.3l-1.1,4.4l-1,4.4l-0.8,4.4
			l-0.7,4.4l-0.6,4.5l-0.4,4.5l-0.3,4.5l-0.1,4.5v4.5l0.1,4.5l0.3,4.5l0.4,4.5l0.6,4.5l0.7,4.4l0.8,4.4l1,4.4l1.1,4.4l1.3,4.3
			l1.4,4.3l1.5,4.2l1.7,4.2l1.8,4.1l1.9,4.1l2.1,4l2.2,3.9l2.3,3.9l2.4,3.8l2.5,3.7l2.7,3.6l2.8,3.6l2.9,3.5l3,3.4l3.1,3.3l3.2,3.2
			l3.3,3.1l3.4,3l3.5,2.9l3.6,2.7l3.7,2.6l3.7,2.5l3.8,2.4l3.9,2.3l4,2.1l4,2l4.1,1.9l4.1,1.8l4.2,1.6l4.2,1.5l4.3,1.4l4.3,1.2
			l4.4,1.1l4.4,1l4.4,0.8l4.5,0.7l4.5,0.5l4.5,0.4l4.5,0.2l4.5,0.1l4.5,0l4.5-0.2l4.5-0.3l4.5-0.5l4.5-0.6l4.4-0.7l4.4-0.9l4.4-1
			l4.4-1.2l4.3-1.3l4.3-1.4l4.2-1.6l4.2-1.7l4.1-1.8l4.1-2l4-2.1l3.9-2.2l3.9-2.3l3.8-2.5l3.7-2.6l3.6-2.7l3.5-2.8l3.4-2.9l3.3-3
			l3.2-3.1l3.1-3.2l3-3.3l2.9-3.4l2.8-3.5l2.7-3.6l2.6-3.7l2.5-3.8l2.4-3.8l2.2-3.9l2.1-4l2-4l1.9-4.1l1.7-4.2l1.6-4.2l1.5-4.3
			l1.3-4.3l1.2-4.3l1.1-4.4l0.9-4.4l0.8-4.4l0.6-4.5l0.5-4.5l0.4-4.5l0.2-4.5L432.7,202.8"/>
		<path class="st1" d="M302.4,60.6l-0.1,0l-0.1,0l-0.1,0l-0.1,0l-0.1,0l-0.1,0l-0.1,0l-0.1,0l-0.1,0l-0.1,0l-0.1,0l-0.1,0l-0.1,0
			l-0.1,0l-0.1,0l-0.1,0l-0.1,0l-0.1,0l-0.1,0l-0.1,0l-0.1,0l-0.1,0l-0.1,0l-0.1,0l-0.1,0l-0.1,0l-0.1,0l-0.1,0l-0.1,0l-0.1,0
			l-0.1,0l-0.1,0l-0.1,0l-0.1,0l-0.1,0l-0.1,0l-0.1,0l-0.1,0l-0.1,0l-0.1,0l-0.1,0l-0.1,0l-0.1,0l-0.1,0l-0.1,0l-0.1,0l-0.1,0
			l-0.1,0l-0.1,0l-0.1,0l-0.1,0l-0.1,0l-0.1,0l-0.1,0l-0.1,0l-0.1,0l-0.1,0l-0.1,0l-0.1,0l-0.1,0l-0.1,0l-0.1,0l-0.1,0l-0.1,0
			l-0.1,0l-0.1,0l-0.1,0l-0.1,0l-0.1,0l-0.1,0l-0.1,0l-0.1,0l-0.1,0l-0.1,0l-0.1,0l-0.1,0l-0.1,0l-0.1,0l-0.1,0l-0.1,0l-0.1,0
			l-0.1,0l-0.1,0l-0.1,0l-0.1,0l-0.1,0l-0.1,0l-0.1,0l-0.1,0l-0.1,0l-0.1,0l-0.1,0l-0.1,0l-0.1,0l-0.1,0l-0.1,0l-0.1,0l-0.1,0
			l-0.1,0h-0.1l-0.1,0l-0.1,0l-0.1,0l-0.1,0l-0.1,0l-0.1,0l-0.1,0l-0.1,0l-0.1,0l-0.1,0l-0.1,0l-0.1,0l-0.1,0l-0.1,0l-0.1,0l-0.1,0
			l-0.1,0l-0.1,0l-0.1,0l-0.1,0l-0.1,0l-0.1,0l-0.1,0l-0.1,0l-0.1,0l-0.1,0l-0.1,0l-0.1,0l-0.1,0l-0.1,0l-0.1,0l-0.1,0l-0.1,0
			l-0.1,0l-0.1,0l-0.1,0l-0.1,0l-0.1,0l-0.1,0l-0.1,0l-0.1,0l-0.1,0l-0.1,0l-0.1,0l-0.1,0l-0.1,0l-0.1,0l-0.1,0l-0.1,0l-0.1,0
			l-0.1,0l-0.1,0l-0.1,0l-0.1,0l-0.1,0l-0.1,0l-0.1,0l-0.1,0l-0.1,0l-0.1,0l-0.1,0l-0.1,0l-0.1,0l-0.1,0l-0.1,0l-0.1,0l-0.1,0
			l-0.1,0l-0.1,0l-0.1,0l-0.1,0l-0.1,0l-0.1,0l-0.1,0l-0.1,0l-0.1,0l-0.1,0l-0.1,0l-0.1,0l-0.1,0l-0.1,0l-0.1,0l-0.1,0l-0.1,0
			l-0.1,0l-0.1,0l-0.1,0l-0.1,0l-0.1,0l-0.1,0l-0.1,0l-0.1,0l-0.1,0l-0.1,0l-0.1,0l-0.1,0l-0.1,0l-0.1,0l-0.1,0"/>
	</g>
</g>
</svg>
