<?xml version="1.0" encoding="utf-8"?>
<!-- Generator: Adobe Illustrator 25.2.1, SVG Export Plug-In . SVG Version: 6.00 Build 0)  -->
<svg version="1.1" id="Layer_1" xmlns="http://www.w3.org/2000/svg" xmlns:xlink="http://www.w3.org/1999/xlink" x="0px" y="0px"
	 viewBox="0 0 431 139.9" style="enable-background:new 0 0 431 139.9;" xml:space="preserve">
<style type="text/css">
	.st0{fill:#FFFFFF;stroke:#000000;stroke-miterlimit:10;}
	.st1{font-family:'ArialMT';}
	.st2{font-size:28px;}
</style>
<path class="st0" d="M88.5,100.5h-76c-6.6,0-12-5.4-12-12v-76c0-6.6,5.4-12,12-12h76c6.6,0,12,5.4,12,12v76
	C100.5,95.1,95.1,100.5,88.5,100.5z"/>
<path class="st0" d="M418.5,100.5h-76c-6.6,0-12-5.4-12-12v-76c0-6.6,5.4-12,12-12h76c6.6,0,12,5.4,12,12v76
	C430.5,95.1,425.1,100.5,418.5,100.5z"/>
<path class="st0" d="M308.5,100.5h-76c-6.6,0-12-5.4-12-12v-76c0-6.6,5.4-12,12-12h76c6.6,0,12,5.4,12,12v76
	C320.5,95.1,315.1,100.5,308.5,100.5z"/>
<path class="st0" d="M198.5,100.5h-76c-6.6,0-12-5.4-12-12v-76c0-6.6,5.4-12,12-12h76c6.6,0,12,5.4,12,12v76
	C210.5,95.1,205.1,100.5,198.5,100.5z"/>
<text transform="matrix(1 0 0 1 40.3896 58.4683)" class="st1 st2">C</text>
<text transform="matrix(1 0 0 1 370.8901 58.4683)" class="st1 st2">N</text>
<text transform="matrix(1 0 0 1 260.6621 58.4683)" class="st1 st2">B</text>
<text transform="matrix(1 0 0 1 150.6621 58.468)" class="st1 st2">V</text>
<polygon points="45.5,122.5 70.5,136.9 70.5,108.1 "/>
<polygon points="30.5,122.5 55.5,136.9 55.5,108.1 "/>
<polygon points="385.5,122.5 360.5,108.1 360.5,136.9 "/>
<polygon points="400.5,122.5 375.5,108.1 375.5,136.9 "/>
<polygon points="135.5,122.5 160.5,136.9 160.5,108.1 "/>
<polygon points="285.5,123.5 260.5,109.1 260.5,137.9 "/>
</svg>
