<?xml version="1.0" encoding="utf-8"?>
<!-- Generator: Adobe Illustrator 25.2.1, SVG Export Plug-In . SVG Version: 6.00 Build 0)  -->
<svg version="1.1" id="Layer_1" xmlns="http://www.w3.org/2000/svg" xmlns:xlink="http://www.w3.org/1999/xlink" x="0px" y="0px"
	 viewBox="0 0 500 500" style="enable-background:new 0 0 500 500;" xml:space="preserve">
<style type="text/css">
	.st0{fill:none;stroke:#00FF00;stroke-width:26;stroke-linejoin:round;stroke-miterlimit:10;}
</style>
<g>
	<g>
		<path class="st0" d="M440.8,242.8v-0.2v-0.2v-0.2V242v-0.2v-0.2v-0.2v-0.2V241v-0.2v-0.2v-0.2v-0.2V240v-0.2v-0.2v-0.2v-0.2V239
			v-0.2v-0.2v-0.2v-0.2V238v-0.2v-0.2v-0.2v-0.2V237v-0.2v-0.2v-0.2v-0.2V236v-0.2v-0.2v-0.2v-0.2V235v-0.2v-0.2v-0.2v-0.2V234v-0.2
			v-0.2v-0.2v-0.2V233v-0.2v-0.2v-0.2v-0.2V232v-0.2v-0.2v-0.2v-0.2V231v-0.2v-0.2v-0.2v-0.2V230v-0.2v-0.2v-0.2v-0.2V229v-0.2v-0.2
			v-0.2v-0.2V228v-0.2v-0.2v-0.2v-0.2V227v-0.2v-0.2v-0.2v-0.2V226v-0.2v-0.2v-0.2v-0.2V225v-0.2v-0.2v-0.2v-0.2V224v-0.2v-0.2v-0.2
			v-0.2V223"/>
	</g>
</g>
</svg>
