<?xml version="1.0" encoding="utf-8"?>
<!-- Generator: Adobe Illustrator 25.2.1, SVG Export Plug-In . SVG Version: 6.00 Build 0)  -->
<svg version="1.1" id="Layer_1" xmlns="http://www.w3.org/2000/svg" xmlns:xlink="http://www.w3.org/1999/xlink" x="0px" y="0px"
	 viewBox="0 0 560 420" style="enable-background:new 0 0 560 420;" xml:space="preserve">
<style type="text/css">
	.st0{fill:none;stroke:#00FF00;stroke-width:15;stroke-linejoin:round;stroke-miterlimit:10;}
</style>
<g>
	<g>
		<path class="st0" d="M470.8,202.8l0-1.4l0-1.4l0-1.4l-0.1-1.4l-0.1-1.4l-0.1-1.4l-0.1-1.4l-0.1-1.4l-0.1-1.4l-0.2-1.4l-0.2-1.4
			l-0.2-1.4l-0.2-1.3l-0.2-1.3l-0.2-1.3l-0.3-1.3l-0.3-1.3l-0.3-1.3l-0.3-1.3l-0.3-1.3l-0.3-1.3l-0.3-1.3l-0.4-1.3l-0.4-1.3
			l-0.4-1.3l-0.4-1.3l-0.4-1.3l-0.4-1.3l-0.5-1.3l-0.5-1.3l-0.5-1.3l-0.5-1.3l-0.5-1.3l-0.5-1.3l-0.6-1.3l-0.6-1.3l-0.6-1.3
			l-0.6-1.3l-0.6-1.3l-0.6-1.3l-0.6-1.3l-0.7-1.3l-0.7-1.2l-0.7-1.2l-0.7-1.2l-0.7-1.2L453,141l-0.8-1.2l-0.8-1.2l-0.8-1.2l-0.8-1.2
			l-0.8-1.2l-0.8-1.2l-0.8-1.2l-0.9-1.2l-0.9-1.2l-0.9-1.2l-0.9-1.2l-0.9-1.2l-0.9-1.1l-0.9-1.1l-1-1.1l-1-1.1l-1-1.1l-1-1.1l-1-1.1
			l-1-1.1l-1-1.1l-1-1.1l-1.1-1.1l-1.1-1.1l-1.1-1.1l-1.1-1l-1.1-1l-1.1-1l-1.1-1l-1.1-1l-1.2-1l-1.2-1l-1.2-1l-1.2-1l-1.2-1l-1.2-1
			l-1.2-1l-1.2-0.9l-1.3-0.9l-1.3-0.9l-1.3-0.9l-1.3-0.9l-1.3-0.9l-1.3-0.9l-1.3-0.9l-1.3-0.9l-1.3-0.9l-1.3-0.8l-1.4-0.8l-1.4-0.8
			l-1.4-0.8l-1.4-0.8"/>
	</g>
</g>
</svg>
